<?xml version="1.0" encoding="UTF-8"?><svg id="Layer_1" xmlns="http://www.w3.org/2000/svg" viewBox="0 0 438.61 438.6"><path d="M350.64,0H87.97c-23.33,0-45.71,9.27-62.2,25.76C9.27,42.26,0,64.64,0,87.97V350.64c0,23.33,9.27,45.7,25.77,62.2,16.5,16.5,38.87,25.76,62.2,25.76H350.64c23.33,0,45.71-9.27,62.2-25.76,16.5-16.5,25.77-38.88,25.77-62.2V87.97c0-23.33-9.27-45.7-25.77-62.2C396.35,9.27,373.97,0,350.64,0Zm52.78,350.64c0,14-5.56,27.42-15.46,37.32-9.9,9.9-23.32,15.46-37.32,15.46H87.97c-14,0-27.43-5.56-37.32-15.46-9.9-9.9-15.46-23.32-15.46-37.32V87.97c0-14,5.56-27.42,15.46-37.32,9.9-9.9,23.32-15.46,37.32-15.46H350.64c14,0,27.43,5.56,37.32,15.46,9.9,9.9,15.46,23.32,15.46,37.32V350.64ZM219.39,129.49c-23.86-.04-46.75,9.39-63.64,26.23-16.89,16.84-26.4,39.7-26.43,63.56-.03,23.86,9.42,46.74,26.27,63.63,16.85,16.88,39.72,26.38,63.57,26.39,23.85,.02,46.73-9.45,63.61-26.31,16.87-16.86,26.35-39.74,26.35-63.59s-9.45-46.66-26.27-63.51c-16.82-16.85-39.64-26.35-63.46-26.4h0Zm0,144.44h0c-14.53,.05-28.48-5.69-38.78-15.94-10.3-10.25-16.09-24.18-16.11-38.71-.02-14.54,5.75-28.48,16.02-38.75,10.28-10.28,24.22-16.04,38.75-16.03,14.53,.02,28.46,5.81,38.71,16.11,10.25,10.3,15.99,24.25,15.94,38.78-.09,14.4-5.88,28.18-16.1,38.34-10.22,10.15-24.04,15.85-38.44,15.85v.35ZM370.17,82.16h0c0,4.67-1.86,9.14-5.16,12.44-3.3,3.3-7.77,5.15-12.44,5.15h-17.59c-6.29,0-12.09-3.36-15.24-8.8-3.14-5.45-3.14-12.15,0-17.59,3.14-5.45,8.95-8.8,15.24-8.8h17.59c4.66,0,9.14,1.85,12.44,5.15,3.3,3.3,5.16,7.77,5.16,12.44h0Z"/></svg>