<?xml version="1.0" encoding="utf-8"?>
<!-- Generator: Adobe Illustrator 26.5.0, SVG Export Plug-In . SVG Version: 6.00 Build 0)  -->
<svg version="1.1" id="Layer_1" xmlns="http://www.w3.org/2000/svg" xmlns:xlink="http://www.w3.org/1999/xlink" x="0px" y="0px"
	 viewBox="0 0 700 700" style="enable-background:new 0 0 700 700;" xml:space="preserve">
<g>
	<path d="M575.1,111.1H124.9c-22.5,0-40.9,18.3-40.9,40.9V408c0,22.5,18.3,40.9,40.9,40.9h450.3c22.5,0,40.9-18.3,40.9-40.9l0-256.1
		C616,129.4,597.7,111.1,575.1,111.1L575.1,111.1z M563.1,136.5L358.9,280.7c-5.3,3.7-12.4,3.7-17.8,0L136.9,136.5L563.1,136.5z
		 M109.4,152c0-1.2,0.1-2.3,0.4-3.4l141.8,100.1l-142.2,86.6L109.4,152z M590.6,408c0,8.5-6.9,15.4-15.4,15.4l-450.3,0
		c-8.5,0-15.4-6.9-15.4-15.4v-43l164.9-100.4l52.1,36.8c7,5,15.3,7.4,23.5,7.4s16.5-2.5,23.5-7.4l52.1-36.8L590.6,365V408z
		 M590.6,335.3l-142.2-86.6l141.8-100.1c0.2,1.1,0.4,2.2,0.4,3.4L590.6,335.3z"/>
</g>
</svg>
