<?xml version="1.0" encoding="utf-8"?>
<!-- Generator: Adobe Illustrator 26.5.0, SVG Export Plug-In . SVG Version: 6.00 Build 0)  -->
<svg version="1.1" id="Layer_1" xmlns="http://www.w3.org/2000/svg" xmlns:xlink="http://www.w3.org/1999/xlink" x="0px" y="0px"
	 viewBox="0 0 700 700" style="enable-background:new 0 0 700 700;" xml:space="preserve">
<style type="text/css">
	.st0{fill-rule:evenodd;clip-rule:evenodd;}
</style>
<g>
	<path class="st0" d="M417.4,347.4h-80.9c-7.4,0-13.5-6.1-13.5-13.5v-40.5h94.4c22.3,0,40.4-18.2,40.4-40.5
		c0-22.3-18.1-40.5-40.4-40.5l-94.4,0v-40.5c0-22.3-18.1-40.4-40.4-40.4s-40.5,18.1-40.5,40.4v161.8c0,52,42.3,94.4,94.4,94.4h80.9
		c22.3,0,40.4-18.1,40.4-40.5C457.9,365.6,439.7,347.4,417.4,347.4L417.4,347.4z M417.4,401.4h-80.9c-37.2,0-67.4-30.2-67.4-67.4
		V172.1c0-7.4,6-13.5,13.5-13.5c7.4,0,13.5,6.1,13.5,13.5v53.9c0,7.4,6,13.5,13.5,13.5h107.9c7.4,0,13.5,6,13.5,13.5
		c0,7.4-6,13.5-13.5,13.5l-107.9,0c-7.4,0-13.5,6-13.5,13.5v53.9c0,22.3,18.1,40.4,40.4,40.4h80.9c7.4,0,13.5,6.1,13.5,13.5
		C430.9,395.3,424.9,401.4,417.4,401.4L417.4,401.4z"/>
	<path class="st0" d="M484.9,73.2H215.2c-39.7,0-71.9,32.2-71.9,71.9v269.7c0,39.6,32.3,71.9,71.9,71.9h269.7
		c39.6,0,71.9-32.3,71.9-71.9V145.2C556.8,105.5,524.5,73.2,484.9,73.2L484.9,73.2z M529.8,414.8c0,24.8-20.2,44.9-44.9,44.9H215.2
		c-24.8,0-44.9-20.2-44.9-44.9V145.2c0-24.8,20.2-45,44.9-45h269.7c24.8,0,44.9,20.2,44.9,45V414.8z"/>
</g>
</svg>
