<?xml version="1.0" encoding="utf-8"?>
<!-- Generator: Adobe Illustrator 26.5.0, SVG Export Plug-In . SVG Version: 6.00 Build 0)  -->
<svg version="1.1" id="Layer_1" xmlns="http://www.w3.org/2000/svg" xmlns:xlink="http://www.w3.org/1999/xlink" x="0px" y="0px"
	 viewBox="0 0 700 700" style="enable-background:new 0 0 700 700;" xml:space="preserve">
<style type="text/css">
	.st0{fill:none;stroke:#000000;stroke-width:16.8;stroke-linecap:round;stroke-linejoin:round;stroke-miterlimit:22.4;}
</style>
<path class="st0" d="M400.4,270c3.7,1.9,6.1,5.8,6.1,10s-2.4,8.1-6.1,10l-35,18l-38.3,19.7h0c-3.5,1.8-7.6,1.6-10.9-0.4
	c-3.3-2-5.4-5.6-5.4-9.5v-75.5c0-3.9,2-7.5,5.4-9.6c3.3-2,7.5-2.2,10.9-0.4l38.3,19.7L400.4,270z"/>
<path class="st0" d="M229.6,154h240.8c34,0,61.6,34,61.6,61.6v128.8c0,34-27.6,61.6-61.6,61.6H229.6c-34,0-61.6-34-61.6-61.6V215.6
	C168,181.6,195.6,154,229.6,154z"/>
</svg>
