<?xml version="1.0" encoding="utf-8"?>
<!-- Generator: Adobe Illustrator 26.5.0, SVG Export Plug-In . SVG Version: 6.00 Build 0)  -->
<svg version="1.1" id="Layer_1" xmlns="http://www.w3.org/2000/svg" xmlns:xlink="http://www.w3.org/1999/xlink" x="0px" y="0px"
	 viewBox="0 0 700 700" style="enable-background:new 0 0 700 700;" xml:space="preserve">
<g>
	<path d="M483.9,463.4c5.7,5.7,5.7,14.9,0,20.6c-5.7,5.7-14.9,5.7-20.6,0l-71.2-71.2c-2.8-2.8-7.8-3.2-11.1-1c0,0-2,1.5-6.2,3.9
		c-15.9,9.1-34.4,14.3-54.1,14.3c-60.3,0-109.1-48.8-109.1-109.1c0-60.3,48.8-109.1,109.1-109.1c60.3,0,109.1,48.8,109.1,109.1
		c0,19.8-5.3,38.4-14.5,54.4c-2.4,4.1-3.7,5.8-3.7,5.8c-2.3,3.3-1.9,8.3,1,11.1L483.9,463.4z M320.9,400.9c44.2,0,80-35.8,80-80
		c0-44.2-35.8-80-80-80c-44.2,0-80,35.8-80,80C240.9,365.1,276.7,400.9,320.9,400.9z"/>
</g>
</svg>
