<?xml version="1.0" encoding="UTF-8"?><svg id="Layer_1" xmlns="http://www.w3.org/2000/svg" viewBox="0 0 413.54 413.52"><defs><style>.cls-1{fill-rule:evenodd;}</style></defs><path class="cls-1" d="M274.19,274.19h-80.93c-7.42,0-13.47-6.05-13.47-13.47v-40.46h94.41c22.3,0,40.45-18.16,40.45-40.46s-18.14-40.46-40.45-40.46h-94.42v-40.46c0-22.3-18.14-40.45-40.45-40.45s-40.46,18.14-40.46,40.45v161.83c0,52.05,42.34,94.38,94.38,94.38h80.93c22.3,0,40.45-18.14,40.45-40.46s-18.14-40.44-40.44-40.44h0Zm0,53.94h-80.93c-37.16,0-67.41-30.25-67.41-67.43V98.87c0-7.42,6.05-13.47,13.47-13.47s13.5,6.05,13.5,13.47v53.95c0,7.45,6.03,13.47,13.47,13.47h107.88c7.45,0,13.47,6.05,13.47,13.49s-6.03,13.47-13.47,13.47h-107.87c-7.45,0-13.47,6.04-13.47,13.48v53.95c0,22.3,18.14,40.45,40.42,40.45h80.93c7.42,0,13.47,6.05,13.47,13.47s-6.05,13.52-13.46,13.52h0Z"/><path class="cls-1" d="M341.62,0H71.92C32.27,0,0,32.25,0,71.91V341.6c0,39.65,32.27,71.91,71.92,71.91H341.62c39.65,0,71.91-32.27,71.91-71.91V71.92C413.54,32.25,381.28,0,341.63,0h0Zm44.94,341.6c0,24.79-20.15,44.95-44.94,44.95H71.92c-24.79,0-44.95-20.16-44.95-44.95V71.92c0-24.78,20.16-44.96,44.95-44.96H341.62c24.79,0,44.94,20.18,44.94,44.96V341.6Z"/></svg>