<?xml version="1.0" encoding="UTF-8"?><svg id="Layer_1" xmlns="http://www.w3.org/2000/svg" viewBox="0 0 380.8 268.8"><defs><style>.cls-1{fill:none;stroke:#000;stroke-linecap:round;stroke-linejoin:round;stroke-width:16.8px;}</style></defs><path class="cls-1" d="M240.8,124.46c3.74,1.92,6.09,5.77,6.09,9.97s-2.35,8.05-6.09,9.97l-35,18.03-38.3,19.66h0c-3.46,1.77-7.6,1.62-10.92-.41-3.32-2.02-5.36-5.62-5.38-9.51V96.69c0-3.9,2.03-7.52,5.36-9.55,3.32-2.04,7.47-2.19,10.94-.42l38.3,19.71,35,18.03Z"/><path class="cls-1" d="M70,8.4h240.8c34.02,0,61.6,34.02,61.6,61.6V198.8c0,34.02-27.58,61.6-61.6,61.6H70c-34.02,0-61.6-34.02-61.6-61.6V70c0-34.02,27.58-61.6,61.6-61.6Z"/></svg>